<?xml version="1.0" encoding="utf-8"?>
<svg width="117px" height="62px" viewBox="0 0 117 62" version="1.1" xmlns:xlink="http://www.w3.org/1999/xlink" xmlns="http://www.w3.org/2000/svg">
  <defs>
    <path d="M0 61.9404L116.076 61.9404L116.076 0L0 0L0 61.9404Z" id="path_1" />
    <path d="M0 0L6.8261 0L6.8261 4.18418L0 4.18418L0 0Z" transform="translate(0.30379456 0.17906779)" id="path_2" />
    <path d="M0 0L4.60919 0L4.60919 3.22042L0 3.22042L0 0Z" transform="translate(0.341 0.06021154)" id="path_3" />
    <path d="M0 0L3.11695 0L3.11695 2.49663L0 2.49663L0 0Z" transform="translate(0.2350951 0.48825)" id="path_4" />
    <path d="M0 0L2.41483 0L2.41483 2.17119L0 2.17119L0 0Z" transform="translate(0.42803845 0.279)" id="path_5" />
    <path d="M0 0L1.88385 0L1.88385 1.87441L0 1.87441L0 0Z" transform="translate(0.59198076 0.5519348)" id="path_6" />
    <path d="M0 0L8.1476 0L8.1476 10.4964L0 10.4964L0 0Z" transform="translate(0.06975 0.41790384)" id="path_7" />
    <path d="M0 0L5.12454 0L5.12454 8.88733L0 8.88733L0 0Z" transform="translate(0.51865387 0.054846153)" id="path_8" />
    <path d="M0 0L3.38018 0L3.38018 6.5331L0 6.5331L0 0Z" transform="translate(0.11982692 0.20507692)" id="path_9" />
    <clipPath id="mask_1">
      <use xlink:href="#path_1" />
    </clipPath>
    <clipPath id="mask_2">
      <use xlink:href="#path_2" />
    </clipPath>
    <clipPath id="mask_3">
      <use xlink:href="#path_3" />
    </clipPath>
    <clipPath id="mask_4">
      <use xlink:href="#path_4" />
    </clipPath>
    <clipPath id="mask_5">
      <use xlink:href="#path_5" />
    </clipPath>
    <clipPath id="mask_6">
      <use xlink:href="#path_6" />
    </clipPath>
    <clipPath id="mask_7">
      <use xlink:href="#path_7" />
    </clipPath>
    <clipPath id="mask_8">
      <use xlink:href="#path_8" />
    </clipPath>
    <clipPath id="mask_9">
      <use xlink:href="#path_9" />
    </clipPath>
  </defs>
  <g id="Group-57">
    <path d="M8.64423 7.3625C8.14823 7.3625 7.52644 7.38754 6.78125 7.43702C6.03606 7.4865 5.32127 7.60633 4.6351 7.79531C3.94952 7.98369 3.3641 8.277 2.87704 8.67404C2.38938 9.07167 2.14615 9.61835 2.14615 10.3135C2.14615 10.7707 2.24035 11.163 2.42992 11.4909C2.6189 11.8193 2.87108 12.087 3.18942 12.2957C3.50717 12.5043 3.8601 12.6534 4.2476 12.7428C4.6351 12.8322 5.02796 12.8769 5.425 12.8769C6.14098 12.8769 6.76158 12.7577 7.28798 12.5192C7.81379 12.2808 8.25673 11.9577 8.61502 11.5505C8.97271 11.1433 9.23562 10.6664 9.40433 10.1197C9.57364 9.57304 9.65829 8.99179 9.65829 8.37596L9.65829 7.3625L8.64423 7.3625ZM9.65829 5.75288L9.65829 5.39519C9.65829 2.9909 8.46598 1.78846 6.08137 1.78846C4.45148 1.78846 3.03085 2.33513 1.81887 3.42788L0.626558 2.02692C1.9375 0.676038 3.9054 0 6.52848 0C7.20392 0 7.85492 0.0995577 8.48029 0.298077C9.10625 0.496596 9.64815 0.800038 10.1054 1.20721C10.5621 1.61438 10.9299 2.12648 11.2083 2.74231C11.4867 3.35873 11.625 4.09438 11.625 4.94808L11.625 11.1779C11.625 11.7144 11.6506 12.276 11.6995 12.8626C11.7496 13.448 11.8044 13.9309 11.8635 14.3077L9.95637 14.3077C9.89615 13.9697 9.85144 13.6024 9.82163 13.2048C9.79242 12.8072 9.77692 12.4197 9.77692 12.0429L9.7179 12.0429C9.14142 12.9765 8.46002 13.6472 7.67548 14.0549C6.89094 14.4615 5.93233 14.6654 4.79963 14.6654C4.18381 14.6654 3.58765 14.5807 3.01117 14.412C2.43469 14.2433 1.9226 13.9846 1.47548 13.637C1.02837 13.2895 0.670673 12.8626 0.403 12.3553C0.134135 11.8486 0 11.2578 0 10.5817C0 9.44904 0.293308 8.55958 0.879327 7.91394C1.46594 7.26831 2.2004 6.78662 3.08569 6.46827C3.96919 6.15052 4.9135 5.9514 5.91742 5.87212C6.91956 5.79283 7.83942 5.75288 8.67463 5.75288L9.65829 5.75288Z" transform="translate(32.021927 16.890886)" id="Fill-1" fill="#FFFFFF" fill-rule="evenodd" stroke="none" />
    <path d="M10.8798 3.63804C10.5412 3.12117 10.0696 2.68419 9.46394 2.3265C8.85587 1.96881 8.16671 1.78996 7.39112 1.78996C6.57617 1.77029 5.84648 1.89906 5.20144 2.17746C4.55521 2.45646 4.00317 2.84336 3.54652 3.33996C3.08927 3.83656 2.74231 4.42794 2.50325 5.11411C2.26479 5.79909 2.14615 6.53952 2.14615 7.33419C2.14615 8.12946 2.26479 8.86929 2.50325 9.55486C2.74231 10.2404 3.08927 10.8318 3.54652 11.3284C4.00317 11.825 4.55521 12.2125 5.20144 12.4915C5.84648 12.7693 6.57617 12.8987 7.39112 12.8784C8.16671 12.8784 8.85587 12.6996 9.46394 12.3425C10.0696 11.9842 10.5412 11.5478 10.8798 11.0303L12.4888 12.2525C11.7925 13.0674 11.008 13.6683 10.1346 14.0564C9.25887 14.4433 8.34615 14.6466 7.39112 14.6669C6.25962 14.6866 5.23483 14.5125 4.32212 14.1452C3.40702 13.7774 2.62665 13.2659 1.98162 12.6102C1.33538 11.9544 0.844154 11.1752 0.506731 10.2702C0.167519 9.36588 0 8.38759 0 7.33419C0 6.28198 0.167519 5.3025 0.506731 4.39813C0.844154 3.49377 1.33538 2.714 1.98162 2.05883C2.62665 1.40246 3.40702 0.891556 4.32212 0.523133C5.23483 0.155902 6.25962 -0.0181748 7.39112 0.00149826C8.34615 0.0223636 9.25887 0.225056 10.1346 0.612556C11.008 1.00006 11.7925 1.60098 12.4888 2.41592L10.8798 3.63804Z" transform="translate(46.89662 16.889389)" id="Fill-3" fill="#FFFFFF" fill-rule="evenodd" stroke="none" />
    <path d="M8.94231 5.72308L4.91827 5.72308L4.91827 13.95C4.91827 14.4669 4.96835 14.8889 5.06731 15.2168C5.16627 15.5453 5.30458 15.7981 5.48521 15.9769C5.66346 16.1558 5.87629 16.2798 6.12429 16.3495C6.37348 16.4193 6.64592 16.4538 6.944 16.4538C7.28321 16.4538 7.63137 16.4044 7.98727 16.3048C8.34615 16.2052 8.67463 16.0765 8.97271 15.9179L9.06213 17.7356C8.32648 18.073 7.44119 18.2423 6.40865 18.2423C6.03129 18.2423 5.63902 18.1928 5.23006 18.0933C4.82408 17.9937 4.45148 17.8059 4.11227 17.5269C3.77604 17.2485 3.49763 16.8712 3.27885 16.3942C3.06006 15.9179 2.95156 15.2913 2.95156 14.5163L2.95156 5.72308L0 5.72308L0 3.93462L2.95156 3.93462L2.95156 0L4.91827 0L4.91827 3.93462L8.94231 3.93462L8.94231 5.72308Z" transform="translate(61.717842 13.313964)" id="Fill-5" fill="#FFFFFF" fill-rule="evenodd" stroke="none" />
    <path d="M10.075 13.95C10.0345 13.5726 10.01 13.2 10.0005 12.8322C9.98856 12.465 9.98558 12.0924 9.98558 11.7144L9.92596 11.7144C9.70717 12.0924 9.42877 12.4399 9.09135 12.7577C8.75333 13.076 8.37477 13.3491 7.95806 13.5774C7.54135 13.8063 7.099 13.9846 6.63221 14.1133C6.16363 14.2427 5.70281 14.3077 5.24496 14.3077C3.4565 14.3077 2.13542 13.8361 1.28173 12.8918C0.425654 11.9481 0 10.602 0 8.85288L0 0L1.96612 0L1.96612 7.72019C1.96612 8.49519 2.02692 9.18077 2.14556 9.77692C2.26419 10.3731 2.46808 10.875 2.75721 11.2816C3.04456 11.6894 3.43087 11.9976 3.91912 12.2063C4.40558 12.4149 5.01723 12.5192 5.75288 12.5192C5.85185 12.5192 6.13025 12.4799 6.58631 12.3994C7.04415 12.3207 7.52644 12.1013 8.03258 11.7442C8.53931 11.3865 8.99119 10.85 9.38942 10.1346C9.78646 9.41863 9.98558 8.42485 9.98558 7.15385L9.98558 0L11.9517 0L11.9517 10.8798C11.9517 11.2566 11.9672 11.7347 11.9976 12.3106C12.0262 12.8871 12.0614 13.4337 12.1007 13.95L10.075 13.95Z" transform="translate(73.97184 17.248817)" id="Fill-7" fill="#FFFFFF" fill-rule="evenodd" stroke="none" />
    <path d="M0.119827 4.70902C0.119827 4.09319 0.104923 3.46723 0.0745192 2.83173C0.0453077 2.19563 0.0196731 1.37056 0 0.357096L1.9375 0.357096L1.9375 2.95037L1.99652 2.95037C2.13662 2.573 2.33454 2.21113 2.59267 1.86298C2.8514 1.51542 3.16319 1.20185 3.53281 0.923442C3.89944 0.646231 4.32688 0.422673 4.81454 0.252769C5.29981 0.0840577 5.85185 0 6.46767 0C7.02448 0 7.51094 0.0590192 7.92944 0.17825L7.54135 2.11575C7.28321 2.01679 6.90585 1.96671 6.40865 1.96671C5.65273 1.96671 5.00769 2.11158 4.47115 2.39892C3.93402 2.68746 3.4869 3.05529 3.12981 3.5024C2.77212 3.94952 2.50921 4.43121 2.3405 4.94748C2.17 5.46494 2.08654 5.96154 2.08654 6.43787L2.08654 14.3077L0.119827 14.3077L0.119827 4.70902Z" transform="translate(89.46529 16.891363)" id="Fill-9" fill="#FFFFFF" fill-rule="evenodd" stroke="none" />
    <path d="M0 61.9404L116.076 61.9404L116.076 0L0 0L0 61.9404Z" id="Clip-12" fill="none" fill-rule="evenodd" stroke="none" />
    <g clip-path="url(#mask_1)">
      <path d="M0.447115 20.7462L2.41502 20.7462L2.41502 6.79615L0.447115 6.79615L0.447115 20.7462ZM2.86213 1.43017C2.86213 1.84748 2.7131 2.19087 2.41502 2.45913C2.11694 2.72681 1.78846 2.86154 1.43077 2.86154C1.07367 2.86154 0.745192 2.72681 0.447115 2.45913C0.149038 2.19087 0 1.84748 0 1.43017C0 1.01287 0.149038 0.670673 0.447115 0.402404C0.745192 0.133538 1.07367 0 1.43077 0C1.78846 0 2.11694 0.133538 2.41502 0.402404C2.7131 0.670673 2.86213 1.01287 2.86213 1.43017L2.86213 1.43017Z" transform="translate(99.892136 10.452962)" id="Fill-11" fill="#FFFFFF" fill-rule="evenodd" stroke="none" />
      <path d="M8.556 3.66575C8.25792 3.08987 7.85969 2.63321 7.36369 2.2946C6.8665 1.95717 6.25962 1.78846 5.54483 1.78846C5.2074 1.78846 4.86402 1.82781 4.51706 1.9071C4.1689 1.98758 3.85533 2.11158 3.57692 2.27969C3.29912 2.4484 3.07556 2.66242 2.90625 2.92056C2.73754 3.17988 2.65408 3.49704 2.65408 3.875C2.65408 4.53017 2.88062 5.0071 3.33965 5.30517C3.79631 5.60325 4.48188 5.86258 5.39579 6.08017L7.3929 6.55769C8.36642 6.77588 9.1766 7.21763 9.82283 7.88354C10.4679 8.54944 10.7916 9.37869 10.7916 10.3725C10.7916 11.1284 10.6366 11.7788 10.3296 12.3249C10.0208 12.8716 9.61298 13.3187 9.10685 13.6662C8.60012 14.0144 8.01946 14.2677 7.36369 14.4263C6.70673 14.5849 6.04202 14.6648 5.36539 14.6648C4.2935 14.6648 3.29435 14.4609 2.3709 14.0537C1.44627 13.6466 0.656962 12.9461 0 11.9523L1.70023 10.7898C2.09727 11.4265 2.59923 11.9326 3.20433 12.31C3.81121 12.6879 4.53196 12.8763 5.36539 12.8763C5.76242 12.8763 6.15946 12.8316 6.55769 12.7428C6.95473 12.6528 7.30885 12.5139 7.61646 12.3249C7.92348 12.1359 8.17148 11.8927 8.36165 11.5946C8.55004 11.2965 8.64423 10.949 8.64423 10.5513C8.64423 9.85621 8.38729 9.35425 7.87042 9.04604C7.35177 8.73842 6.727 8.49519 5.99194 8.31575L4.08485 7.86863C3.84639 7.80902 3.52267 7.71006 3.1161 7.57056C2.70713 7.43165 2.3101 7.223 1.92379 6.9446C1.53629 6.66679 1.20304 6.30373 0.924635 5.85662C0.645038 5.4095 0.507923 4.85806 0.507923 4.20229C0.507923 3.4869 0.651 2.86094 0.940135 2.3244C1.22748 1.78846 1.61379 1.35088 2.10204 1.01287C2.5885 0.675442 3.14054 0.422673 3.75637 0.252769C4.371 0.0840577 5.00829 0 5.66346 0C6.63817 0 7.54194 0.188385 8.37656 0.56575C9.21177 0.944308 9.85681 1.58994 10.3141 2.50325L8.556 3.66575Z" transform="translate(105.238266 16.891363)" id="Fill-13" fill="#FFFFFF" fill-rule="evenodd" stroke="none" />
      <path d="M4.1779 4.10571C3.70515 4.57131 3.09647 4.78771 2.43236 4.78771C0.727953 4.78771 0.00601027 3.61388 4.87308e-05 2.42038C-0.00710512 1.22033 0.77326 0 2.43236 0C3.05653 0 3.64672 0.236077 4.11828 0.702269L3.5424 1.25967C3.24074 0.963385 2.83297 0.826865 2.43236 0.826865C1.32411 0.826865 0.845395 1.65313 0.852549 2.42038C0.859703 3.18108 1.29847 3.97456 2.43236 3.97456C2.83297 3.97456 3.28605 3.81062 3.5877 3.50896L4.1779 4.10571Z" transform="translate(32.01359 36.477283)" id="Fill-14" fill="#FFFFFF" fill-rule="evenodd" stroke="none" />
      <path d="M0.8525 2.4335C0.872173 3.18823 1.27875 3.99483 2.36017 3.99483C3.44338 3.99483 3.84937 3.18108 3.86248 2.42694C3.87619 1.65313 3.44338 0.786923 2.36017 0.786923C1.27875 0.786923 0.832827 1.66029 0.8525 2.4335M4.71558 2.41442C4.70187 3.60137 3.97396 4.78771 2.36017 4.78771C0.747577 4.78771 0 3.627 0 2.42098C0 1.21437 0.773212 0 2.36017 0C3.94177 0 4.72869 1.21437 4.71558 2.41442" transform="translate(37.200836 36.476925)" id="Fill-15" fill="#FFFFFF" fill-rule="evenodd" stroke="none" />
      <path d="M2.95156 0L3.81777 0L3.81777 4.59694L3.28004 4.59694L3.28004 4.6041L0.866212 1.50171L0.866212 4.59694L0 4.59694L0 0.00655769L0.702269 0.00655769L2.95156 2.8526L2.95156 0Z" transform="translate(43.34426 36.56307)" id="Fill-16" fill="#FFFFFF" fill-rule="evenodd" stroke="none" />
      <path d="M2.95156 0L3.81658 0L3.81658 4.59694L3.27885 4.59694L3.27885 4.6041L0.866212 1.50171L0.866212 4.59694L0 4.59694L0 0.00655769L0.702269 0.00655769L2.95156 2.8526L2.95156 0Z" transform="translate(48.748096 36.56307)" id="Fill-17" fill="#FFFFFF" fill-rule="evenodd" stroke="none" />
      <path d="M3.43742 4.59098L0 4.59098L0 0L3.43742 0L3.43742 0.839385L0.859654 0.839385L0.859654 1.89577L3.34562 1.89577L3.34562 2.70237L0.859654 2.70237L0.859654 3.73848L3.43742 3.73848L3.43742 4.59098Z" transform="translate(54.072407 36.56897)" id="Fill-18" fill="#FFFFFF" fill-rule="evenodd" stroke="none" />
      <path d="M4.1779 4.10571C3.70515 4.57131 3.09647 4.78771 2.43236 4.78771C0.727953 4.78771 0.00601027 3.61388 4.87308e-05 2.42038C-0.00710512 1.22033 0.77326 0 2.43236 0C3.05534 0 3.64553 0.236077 4.11828 0.702269L3.5424 1.25967C3.24074 0.963385 2.83297 0.826865 2.43236 0.826865C1.32411 0.826865 0.845395 1.65313 0.852549 2.42038C0.859703 3.18108 1.29847 3.97456 2.43236 3.97456C2.83297 3.97456 3.28605 3.81062 3.5877 3.50896L4.1779 4.10571Z" transform="translate(58.775295 36.477283)" id="Fill-19" fill="#FFFFFF" fill-rule="evenodd" stroke="none" />
      <path d="M1.45521 0.786327L0 0.786327L0 0L3.77783 0L3.77783 0.786327L2.32142 0.786327L2.32142 4.59038L1.45521 4.59038L1.45521 0.786327Z" transform="translate(63.831383 36.569626)" id="Fill-20" fill="#FFFFFF" fill-rule="evenodd" stroke="none" />
      <path d="M3.43742 4.59098L0 4.59098L0 0L3.43742 0L3.43742 0.839385L0.859654 0.839385L0.859654 1.89577L3.34562 1.89577L3.34562 2.70237L0.859654 2.70237L0.859654 3.73848L3.43742 3.73848L3.43742 4.59098Z" transform="translate(68.84701 36.56897)" id="Fill-21" fill="#FFFFFF" fill-rule="evenodd" stroke="none" />
      <path d="M0.857865 3.75815L1.80217 3.75815C2.84544 3.75815 3.25858 2.99806 3.2389 2.24929C3.21923 1.5345 2.79894 0.819712 1.80217 0.819712L0.857865 0.819712L0.857865 3.75815ZM4.09856 2.25585C4.11704 3.41715 3.40881 4.59038 1.80217 4.59038L0 4.59038L0 0L1.80217 0C3.37662 0 4.07829 1.12137 4.09856 2.25585L4.09856 2.25585Z" transform="translate(73.62256 36.56927)" id="Fill-22" fill="#FFFFFF" fill-rule="evenodd" stroke="none" />
      <path d="M1.45521 0.786327L0 0.786327L0 0L3.77783 0L3.77783 0.786327L2.32142 0.786327L2.32142 4.59038L1.45521 4.59038L1.45521 0.786327Z" transform="translate(80.80198 36.569626)" id="Fill-23" fill="#FFFFFF" fill-rule="evenodd" stroke="none" />
      <path d="M3.12146 4.59098L3.12146 2.73515L0.865019 2.73515L0.865019 4.59098L0 4.59098L0 0L0.865019 0L0.865019 1.93452L3.12146 1.93452L3.12146 0L3.98052 0L3.98052 4.59098L3.12146 4.59098Z" transform="translate(85.83781 36.575947)" id="Fill-24" fill="#FFFFFF" fill-rule="evenodd" stroke="none" />
      <path d="M0 4.59038L0.859058 4.59038L0.859058 0L0 0L0 4.59038Z" transform="translate(91.365944 36.56927)" id="Fill-25" fill="#FFFFFF" fill-rule="evenodd" stroke="none" />
      <path d="M2.95037 0L3.81658 0L3.81658 4.59694L3.27885 4.59694L3.27885 4.6041L0.865019 1.50171L0.865019 4.59694L0 4.59694L0 0.00655769L0.702269 0.00655769L2.95037 2.8526L2.95037 0Z" transform="translate(93.83223 36.56307)" id="Fill-26" fill="#FFFFFF" fill-rule="evenodd" stroke="none" />
      <path d="M3.68542 0.0268269L1.64658 2.22425L3.85652 4.53852L3.85652 4.59098L2.78762 4.59098L0.866212 2.5581L0.866212 4.59098L0 4.59098L0 0L0.866212 0L0.866212 1.94108L2.61056 0L3.68542 0L3.68542 0.0268269Z" transform="translate(99.16936 36.56885)" id="Fill-27" fill="#FFFFFF" fill-rule="evenodd" stroke="none" />
      <path d="M0 4.59038L0.859058 4.59038L0.859058 0L0 0L0 4.59038Z" transform="translate(104.19935 36.56927)" id="Fill-28" fill="#FFFFFF" fill-rule="evenodd" stroke="none" />
      <path d="M2.95037 0L3.81658 0L3.81658 4.59694L3.27885 4.59694L3.27885 4.6041L0.865019 1.50171L0.865019 4.59694L0 4.59694L0 0.00655769L0.702269 0.00655769L2.95037 2.8526L2.95037 0Z" transform="translate(106.66587 36.56307)" id="Fill-29" fill="#FFFFFF" fill-rule="evenodd" stroke="none" />
      <path d="M3.59302 1.25252C3.28421 0.957423 2.82577 0.792885 2.42515 0.792885C1.44269 0.792885 0.845346 1.54046 0.845346 2.48477C0.845346 3.2395 1.28412 4.02106 2.42515 4.02106C2.78583 4.02106 3.1006 3.94177 3.46127 3.65263L3.46127 2.84008L2.28804 2.84008L2.28804 2.06567L4.25535 2.06567L4.25535 4.00079C3.80406 4.51885 3.23294 4.82706 2.42515 4.82706C0.700481 4.82706 0 3.69258 0 2.48477C0 1.1935 0.805404 0 2.42515 0C3.04217 0 3.658 0.236077 4.13075 0.701673L3.59302 1.25252Z" transform="translate(111.82058 36.438236)" id="Fill-30" fill="#FFFFFF" fill-rule="evenodd" stroke="none" />
      <path d="M9.68854 3.49692C9.47094 4.98969 7.13044 5.88571 4.45967 5.49702C1.7895 5.10952 -0.199269 3.58396 0.0159429 2.09178C0.235327 0.59842 2.57404 -0.2976 5.2466 0.0904966C7.91498 0.478593 9.90494 2.00415 9.68854 3.49692" transform="translate(-0.00026402224 13.589267)" id="Fill-31" fill="#FFFFFF" fill-rule="evenodd" stroke="none" />
      <g id="Group-34" transform="translate(6.5576925 2.9211538)">
        <path d="M0 0L6.8261 0L6.8261 4.18418L0 4.18418L0 0Z" transform="translate(0.30379456 0.17906779)" id="Clip-33" fill="none" fill-rule="evenodd" stroke="none" />
        <g clip-path="url(#mask_2)">
          <path d="M6.76349 3.47291C6.40461 4.34091 4.61436 4.42676 2.76509 3.66428C0.913432 2.9012 -0.294971 1.57953 0.0627208 0.711526C0.421009 -0.156474 2.21066 -0.24232 4.06112 0.520161C5.9098 1.28264 7.12118 2.60491 6.76349 3.47291" transform="translate(0.30379456 0.17906779)" id="Fill-32" fill="#FFFFFF" fill-rule="evenodd" stroke="none" />
        </g>
      </g>
      <g id="Group-37" transform="translate(16.096153 -0.059615385)">
        <path d="M0 0L4.60919 0L4.60919 3.22042L0 3.22042L0 0Z" transform="translate(0.341 0.06021154)" id="Clip-36" fill="none" fill-rule="evenodd" stroke="none" />
        <g clip-path="url(#mask_3)">
          <path d="M4.53905 2.87515C4.22845 3.42599 2.97534 3.30676 1.74011 2.60747C0.50547 1.90819 -0.242107 0.897109 0.0714704 0.345667C0.382067 -0.204583 1.63399 -0.0853524 2.86803 0.613936C4.10266 1.31203 4.85084 2.32549 4.53905 2.87515" transform="translate(0.3404123 0.059598528)" id="Fill-35" fill="#FFFFFF" fill-rule="evenodd" stroke="none" />
        </g>
      </g>
      <g id="Group-40" transform="translate(25.038462 0.5365385)">
        <path d="M0 0L3.11695 0L3.11695 2.49663L0 2.49663L0 0Z" transform="translate(0.2350951 0.48825)" id="Clip-39" fill="none" fill-rule="evenodd" stroke="none" />
        <g clip-path="url(#mask_4)">
          <path d="M3.05734 2.35729C2.82305 2.67384 1.9628 2.43479 1.13236 1.82194C0.306093 1.2085 -0.175003 0.456151 0.0592857 0.138997C0.291786 -0.176368 1.15382 0.0626897 1.98129 0.676132C2.80934 1.28838 3.29282 2.04192 3.05734 2.35729" transform="translate(0.2350951 0.48779875)" id="Fill-38" fill="#FFFFFF" fill-rule="evenodd" stroke="none" />
        </g>
      </g>
      <g id="Group-43" transform="translate(32.192307 3.5173078)">
        <path d="M0 0L2.41483 0L2.41483 2.17119L0 2.17119L0 0Z" transform="translate(0.42803845 0.279)" id="Clip-42" fill="none" fill-rule="evenodd" stroke="none" />
        <g clip-path="url(#mask_5)">
          <path d="M2.36878 2.10405C2.18576 2.31211 1.51866 2.02416 0.877202 1.46139C0.23574 0.899221 -0.135664 0.275048 0.0461633 0.0675866C0.228586 -0.140471 0.89449 0.148067 1.53655 0.71024C2.17801 1.27182 2.5518 1.89659 2.36878 2.10405" transform="translate(0.42760018 0.27877876)" id="Fill-41" fill="#FFFFFF" fill-rule="evenodd" stroke="none" />
        </g>
      </g>
      <g id="Group-46" transform="translate(38.153847 7.0942307)">
        <path d="M0 0L1.88385 0L1.88385 1.87441L0 1.87441L0 0Z" transform="translate(0.59198076 0.5519348)" id="Clip-45" fill="none" fill-rule="evenodd" stroke="none" />
        <g clip-path="url(#mask_6)">
          <path d="M1.81629 1.80466C1.62195 2.00139 1.07229 1.77068 0.590003 1.29197C0.108311 0.812661 -0.125978 0.265392 0.0683683 0.0698537C0.263907 -0.125685 0.811176 0.103238 1.29466 0.582546C1.77695 1.06185 2.01183 1.60972 1.81629 1.80466" transform="translate(0.5912163 0.5519348)" id="Fill-44" fill="#FFFFFF" fill-rule="evenodd" stroke="none" />
        </g>
      </g>
      <path d="M10.4397 2.28855C11.2445 4.37509 9.60743 6.95167 6.77987 8.04322C3.9541 9.13359 1.01089 8.32699 0.204893 6.24165C-0.599915 4.15392 1.03772 1.57913 3.86349 0.486378C6.68926 -0.60518 9.63247 0.202608 10.4397 2.28855" transform="translate(3.9980516 31.265789)" id="Fill-47" fill="#FFFFFF" fill-rule="evenodd" stroke="none" />
      <g id="Group-50" transform="translate(21.461538 47.036537)">
        <path d="M0 0L8.1476 0L8.1476 10.4964L0 10.4964L0 0Z" transform="translate(0.06975 0.41790384)" id="Clip-49" fill="none" fill-rule="evenodd" stroke="none" />
        <g clip-path="url(#mask_7)">
          <path d="M6.1251 0.199749C8.06856 0.990249 8.72612 3.88934 7.59462 6.67815C6.46133 9.46577 3.96881 11.0873 2.02535 10.2968C0.0806959 9.50631 -0.578054 6.60721 0.553446 3.81781C1.68673 1.03079 4.18045 -0.589559 6.1251 0.199749" transform="translate(0.0689387 0.4173301)" id="Fill-48" fill="#FFFFFF" fill-rule="evenodd" stroke="none" />
        </g>
      </g>
      <g id="Group-53" transform="translate(39.942307 52.998077)">
        <path d="M0 0L5.12454 0L5.12454 8.88733L0 8.88733L0 0Z" transform="translate(0.51865387 0.054846153)" id="Clip-52" fill="none" fill-rule="evenodd" stroke="none" />
        <g clip-path="url(#mask_8)">
          <path d="M2.37886 0.00125958C3.78877 -0.0565673 5.01744 1.88391 5.11879 4.33828C5.22133 6.79145 4.15898 8.82791 2.75027 8.88634C1.33798 8.94357 0.109306 7.00368 0.00676775 4.55051C-0.0951746 2.09793 0.966575 0.060875 2.37886 0.00125958" transform="translate(0.5176688 0.054600038)" id="Fill-51" fill="#FFFFFF" fill-rule="evenodd" stroke="none" />
        </g>
      </g>
      <g id="Group-56" transform="translate(51.26923 48.825)">
        <path d="M0 0L3.38018 0L3.38018 6.5331L0 6.5331L0 0Z" transform="translate(0.11982692 0.20507692)" id="Clip-55" fill="none" fill-rule="evenodd" stroke="none" />
        <g clip-path="url(#mask_9)">
          <path d="M0.789449 0.0243437C1.57637 -0.193849 2.61964 1.07894 3.11922 2.86919C3.6176 4.65944 3.38153 6.28932 2.59401 6.50871C1.8047 6.7275 0.760238 5.45471 0.261853 3.66327C-0.237724 1.87421 -0.00105071 0.243132 0.789449 0.0243437" transform="translate(0.11950648 0.2049967)" id="Fill-54" fill="#FFFFFF" fill-rule="evenodd" stroke="none" />
        </g>
      </g>
    </g>
  </g>
</svg>