<svg width="32" height="32" viewBox="0 0 32 32" fill="none" xmlns="http://www.w3.org/2000/svg">
<path fill-rule="evenodd" clip-rule="evenodd" d="M4.00024 0H28.0002C30.2002 0 32.0002 1.8 32.0002 4V28C32.0002 30.2 30.2002 32 28.0002 32H4.00024C1.80024 32 0.000244141 30.2 0.000244141 28V22.6259L0.0567532 22.6588C1.42164 23.4537 4.64857 25.3329 5.43896 25.7791C5.91728 26.0491 6.37512 26.0425 6.8364 25.7767C7.11231 25.6176 10.1384 23.8761 13.1963 22.1164L13.2111 22.1079L13.2718 22.0729C16.4533 20.242 19.645 18.4052 19.7862 18.3237C20.0634 18.1637 20.0773 17.6726 19.767 17.4955L19.5494 17.3715L19.5492 17.3714L19.5487 17.3711L19.5478 17.3706C19.2315 17.1905 18.8224 16.9575 18.6478 16.8553C18.4245 16.725 18.0229 16.6526 17.6504 16.8672C17.4958 16.9564 7.14912 22.9056 6.80328 23.1022C6.38936 23.3375 5.87704 23.3406 5.46456 23.1018C5.1388 22.9133 0.000244141 19.9274 0.000244141 19.9274V17.234L0.0569832 17.2671C1.422 18.062 4.64861 19.941 5.43896 20.3872C5.91728 20.6572 6.37512 20.6506 6.8364 20.3848C7.1125 20.2256 10.1427 18.4818 13.2028 16.7208L13.2269 16.7069L13.2458 16.696L13.2567 16.6897C16.4432 14.8559 19.6448 13.0134 19.7862 12.9318C20.0634 12.7718 20.0773 12.2807 19.767 12.1037L19.5495 11.9797C19.2331 11.7996 18.8226 11.5658 18.6478 11.4634C18.4245 11.3332 18.0229 11.2608 17.6504 11.4753C17.4958 11.5645 7.14912 17.5137 6.80328 17.7103C6.38936 17.9456 5.87704 17.9487 5.46456 17.7099C5.1388 17.5214 0.000244141 14.5355 0.000244141 14.5355V11.8425L0.0561181 11.875C1.42064 12.6696 4.64845 14.5493 5.43896 14.9956C5.91728 15.2657 6.37512 15.259 6.8364 14.9932C7.11272 14.8339 10.1476 13.0874 13.2102 11.3249L13.2184 11.3202C16.4175 9.47914 19.6442 7.62218 19.7862 7.54023C20.0634 7.38015 20.0773 6.88911 19.767 6.71207L19.5494 6.58808L19.5487 6.58767C19.2324 6.40753 18.8225 6.1741 18.6478 6.07183C18.4245 5.94159 18.0229 5.86919 17.6504 6.08375C17.4958 6.17295 7.14912 12.1222 6.80328 12.3187C6.38936 12.5541 5.87704 12.5571 5.46456 12.3183C5.1388 12.1298 0.000244141 9.14391 0.000244141 9.14391V4C0.000244141 1.8 1.80024 0 4.00024 0Z" fill="#E44232"/>
<path d="M6.83616 14.9932C7.11248 14.8339 10.1473 13.0874 13.2099 11.3249L13.2181 11.3202C16.4172 9.47914 19.644 7.62218 19.7859 7.54023C20.0631 7.38015 20.077 6.88911 19.7668 6.71207L19.5492 6.58808C19.2327 6.40788 18.8224 6.17418 18.6475 6.07183C18.4242 5.94159 18.0226 5.86919 17.6502 6.08375C17.4955 6.17295 7.14888 12.1222 6.80304 12.3187C6.38912 12.5541 5.8768 12.5571 5.46432 12.3183C5.13856 12.1298 0 9.14391 0 9.14391V11.8425L0.055874 11.875C1.42039 12.6696 4.6482 14.5493 5.43872 14.9956C5.91704 15.2657 6.37488 15.259 6.83616 14.9932Z" fill="white"/>
<path d="M6.83616 20.3848C7.11226 20.2256 10.1425 18.4818 13.2025 16.7208L13.2266 16.7069C16.423 14.8674 19.6441 13.0137 19.7859 12.9318C20.0631 12.7718 20.077 12.2807 19.7668 12.1037L19.5493 11.9797C19.2329 11.7996 18.8224 11.5658 18.6475 11.4634C18.4242 11.3332 18.0226 11.2608 17.6502 11.4753C17.4955 11.5645 7.14888 17.5137 6.80304 17.7103C6.38912 17.9456 5.8768 17.9487 5.46432 17.7099C5.13856 17.5214 0 14.5355 0 14.5355V17.234L0.056739 17.2671C1.42176 18.062 4.64837 19.941 5.43872 20.3872C5.91704 20.6572 6.37488 20.6506 6.83616 20.3848Z" fill="white"/>
<path d="M13.2108 22.1079C10.1479 23.8705 7.11251 25.6174 6.83616 25.7767C6.37488 26.0425 5.91704 26.0491 5.43872 25.7791C4.64832 25.3329 1.42139 23.4537 0.056509 22.6588L0 22.6259V19.9274C0 19.9274 5.13856 22.9133 5.46432 23.1018C5.8768 23.3406 6.38912 23.3375 6.80304 23.1022C7.14888 22.9056 17.4955 16.9564 17.6502 16.8672C18.0226 16.6526 18.4242 16.725 18.6475 16.8553C18.8224 16.9577 19.2327 17.1913 19.5491 17.3715C19.6295 17.4173 19.7039 17.4596 19.7668 17.4955C20.077 17.6726 20.0631 18.1637 19.7859 18.3237C19.6439 18.4057 16.4124 20.2654 13.2108 22.1079Z" fill="white"/>
</svg>
