<svg width="128" height="32" viewBox="0 0 128 32" fill="none" xmlns="http://www.w3.org/2000/svg">
<g clip-path="url(#clip0)">
<path fill-rule="evenodd" clip-rule="evenodd" d="M3.92798 0H27.928C30.128 0 31.928 1.8 31.928 4V28C31.928 30.2 30.128 32 27.928 32H3.92798C1.72798 32 -0.0720215 30.2 -0.0720215 28V22.6259L-0.0155125 22.6588C1.34937 23.4537 4.5763 25.3329 5.3667 25.7791C5.84502 26.0491 6.30286 26.0425 6.76414 25.7767C7.04004 25.6176 10.0662 23.8761 13.124 22.1164L13.1388 22.1079L13.1995 22.0729C16.3811 20.242 19.5728 18.4052 19.7139 18.3237C19.9911 18.1637 20.005 17.6726 19.6948 17.4955L19.4771 17.3715L19.477 17.3714L19.4765 17.3711L19.4755 17.3706C19.1592 17.1905 18.7501 16.9575 18.5755 16.8553C18.3522 16.725 17.9506 16.6526 17.5781 16.8672C17.4235 16.9564 7.07686 22.9056 6.73102 23.1022C6.3171 23.3375 5.80478 23.3406 5.3923 23.1018C5.06654 22.9133 -0.0720215 19.9274 -0.0720215 19.9274V17.234L-0.0152825 17.2671C1.34973 18.062 4.57635 19.941 5.3667 20.3872C5.84502 20.6572 6.30286 20.6506 6.76414 20.3848C7.04024 20.2256 10.0704 18.4818 13.1305 16.7208L13.1546 16.7069L13.1735 16.696L13.1845 16.6897C16.371 14.8559 19.5725 13.0134 19.7139 12.9318C19.9911 12.7718 20.005 12.2807 19.6948 12.1037L19.4773 11.9797C19.1609 11.7996 18.7503 11.5658 18.5755 11.4634C18.3522 11.3332 17.9506 11.2608 17.5781 11.4753C17.4235 11.5645 7.07686 17.5137 6.73102 17.7103C6.3171 17.9456 5.80478 17.9487 5.3923 17.7099C5.06654 17.5214 -0.0720215 14.5355 -0.0720215 14.5355V11.8425L-0.0161475 11.875C1.34837 12.6696 4.57618 14.5493 5.3667 14.9956C5.84502 15.2657 6.30286 15.259 6.76414 14.9932C7.04046 14.8339 10.0753 13.0874 13.1379 11.3249L13.1461 11.3202C16.3452 9.47914 19.572 7.62218 19.7139 7.54023C19.9911 7.38015 20.005 6.88911 19.6948 6.71207L19.4771 6.58808L19.4764 6.58767C19.1601 6.40753 18.7502 6.1741 18.5755 6.07183C18.3522 5.94159 17.9506 5.86919 17.5781 6.08375C17.4235 6.17295 7.07686 12.1222 6.73102 12.3187C6.3171 12.5541 5.80478 12.5571 5.3923 12.3183C5.06654 12.1298 -0.0720215 9.14391 -0.0720215 9.14391V4C-0.0720215 1.8 1.72798 0 3.92798 0Z" fill="white"/>
<path fill-rule="evenodd" clip-rule="evenodd" d="M55.6507 19.0819C55.6507 19.5971 55.7385 20.0966 55.9141 20.5736C56.0896 21.055 56.3461 21.478 56.6881 21.8472C57.0301 22.216 57.4394 22.5108 57.9189 22.7313C58.3979 22.9518 58.9427 23.0622 59.5501 23.0622C60.1577 23.0622 60.702 22.9518 61.1814 22.7313C61.6604 22.5108 62.0703 22.216 62.4123 21.8472C62.7518 21.478 63.0106 21.055 63.1861 20.5736C63.3591 20.0966 63.4469 19.5971 63.4469 19.0819C63.4469 18.5666 63.3591 18.0671 63.1861 17.5877C63.0106 17.1085 62.7518 16.6858 62.4123 16.3166C62.0703 15.9478 61.6604 15.653 61.1814 15.4322C60.702 15.2118 60.1577 15.099 59.5501 15.099C58.9427 15.099 58.3979 15.2118 57.9189 15.4322C57.4394 15.653 57.0301 15.9478 56.6881 16.3166C56.3461 16.6858 56.0896 17.1085 55.9141 17.5877C55.7385 18.0671 55.6507 18.5666 55.6507 19.0819ZM52.3342 19.0819C52.3342 18.0309 52.5231 17.077 52.9014 16.2197C53.277 15.3623 53.7903 14.6311 54.4357 14.0215C55.0791 13.4142 55.8444 12.9438 56.7287 12.6108C57.615 12.2802 58.5535 12.1135 59.5501 12.1135C60.5445 12.1135 61.4854 12.2802 62.3694 12.6108C63.2537 12.9438 64.0187 13.4142 64.6644 14.0215C65.3104 14.6311 65.8211 15.3623 66.1989 16.2197C66.5768 17.077 66.7656 18.0309 66.7656 19.0819C66.7656 20.1326 66.5768 21.0866 66.1989 21.9436C65.8211 22.8014 65.3104 23.5324 64.6644 24.1422C64.0187 24.7496 63.2537 25.22 62.3694 25.5506C61.4854 25.8836 60.5445 26.048 59.5501 26.048C58.5535 26.048 57.615 25.8836 56.7287 25.5506C55.8444 25.22 55.0791 24.7496 54.4357 24.1422C53.7903 23.5324 53.277 22.8014 52.9014 21.9436C52.5231 21.0866 52.3342 20.1326 52.3342 19.0819Z" fill="white"/>
<path fill-rule="evenodd" clip-rule="evenodd" d="M71.6292 19.0855C71.6292 19.6008 71.7169 20.1002 71.8925 20.5772C72.0681 21.0586 72.3245 21.4816 72.6663 21.8508C73.0083 22.2196 73.4179 22.5144 73.8972 22.7349C74.3763 22.9553 74.9209 23.0658 75.5285 23.0658C76.1358 23.0658 76.6804 22.9553 77.1596 22.7349C77.6389 22.5144 78.0487 22.2196 78.3902 21.8508C78.7302 21.4816 78.9889 21.0586 79.1644 20.5772C79.3375 20.1002 79.4253 19.6008 79.4253 19.0855C79.4253 18.5702 79.3375 18.0708 79.1644 17.5913C78.9889 17.1121 78.7302 16.6894 78.3902 16.3201C78.0487 15.9513 77.6389 15.6565 77.1596 15.4358C76.6804 15.2154 76.1358 15.1026 75.5285 15.1026C74.9209 15.1026 74.3763 15.2154 73.8972 15.4358C73.4179 15.6565 73.0083 15.9513 72.6663 16.3201C72.3245 16.6894 72.0681 17.1121 71.8925 17.5913C71.7169 18.0708 71.6292 18.5702 71.6292 19.0855ZM79.4816 23.7294H79.4253C78.9461 24.5418 78.3029 25.1312 77.4906 25.5003C76.6804 25.8671 75.8052 26.0516 74.8649 26.0516C73.832 26.0516 72.9162 25.8738 72.1129 25.5137C71.3119 25.1539 70.6256 24.6611 70.0541 24.0334C69.4826 23.4078 69.0484 22.6696 68.7536 21.8213C68.4587 20.9754 68.3127 20.0621 68.3127 19.0855C68.3127 18.1088 68.4679 17.1956 68.7831 16.3473C69.0956 15.5011 69.5322 14.7632 70.0946 14.1353C70.6571 13.5099 71.3343 13.017 72.1263 12.6573C72.9205 12.2972 73.7869 12.1171 74.7251 12.1171C75.353 12.1171 75.9063 12.1824 76.3858 12.3104C76.865 12.4409 77.2878 12.6053 77.6569 12.8102C78.0257 13.0127 78.3388 13.2288 78.5973 13.4581C78.8541 13.6897 79.0677 13.9149 79.2321 14.1353H79.3151V6.82414C79.3151 6.4935 79.5779 6.10254 80.0387 6.10254H81.9124C82.346 6.10254 82.6338 6.46702 82.6338 6.82414V24.9978C82.6338 25.4594 82.2426 25.7207 81.9124 25.7207H80.2067C79.8008 25.7207 79.4816 25.379 79.4816 24.9991V23.7294Z" fill="white"/>
<path fill-rule="evenodd" clip-rule="evenodd" d="M88.1573 19.0819C88.1573 19.5971 88.2451 20.0966 88.4207 20.5736C88.5962 21.055 88.8527 21.478 89.195 21.8472C89.5367 22.216 89.9463 22.5108 90.4255 22.7313C90.9045 22.9518 91.4493 23.0622 92.0567 23.0622C92.6643 23.0622 93.2086 22.9518 93.6881 22.7313C94.1675 22.5108 94.5769 22.216 94.9189 21.8472C95.2587 21.478 95.5172 21.055 95.6927 20.5736C95.8663 20.0966 95.9535 19.5971 95.9535 19.0819C95.9535 18.5666 95.8663 18.0671 95.6927 17.5877C95.5172 17.1085 95.2587 16.6858 94.9189 16.3166C94.5769 15.9478 94.1675 15.653 93.6881 15.4322C93.2086 15.2118 92.6643 15.099 92.0567 15.099C91.4493 15.099 90.9045 15.2118 90.4255 15.4322C89.9463 15.653 89.5367 15.9478 89.195 16.3166C88.8527 16.6858 88.5962 17.1085 88.4207 17.5877C88.2451 18.0671 88.1573 18.5666 88.1573 19.0819ZM84.8408 19.0819C84.8408 18.0309 85.0298 17.077 85.4081 16.2197C85.7836 15.3623 86.2969 14.6311 86.9423 14.0215C87.5858 13.4142 88.351 12.9438 89.2353 12.6108C90.1216 12.2802 91.0602 12.1135 92.0567 12.1135C93.0512 12.1135 93.992 12.2802 94.876 12.6108C95.7603 12.9438 96.5253 13.4142 97.171 14.0215C97.817 14.6311 98.3277 15.3623 98.7055 16.2197C99.0834 17.077 99.2728 18.0309 99.2728 19.0819C99.2728 20.1326 99.0834 21.0866 98.7055 21.9436C98.3277 22.8014 97.817 23.5324 97.171 24.1422C96.5253 24.7496 95.7603 25.22 94.876 25.5506C93.992 25.8836 93.0512 26.048 92.0567 26.048C91.0602 26.048 90.1216 25.8836 89.2353 25.5506C88.351 25.22 87.5858 24.7496 86.9423 24.1422C86.2969 23.5324 85.7836 22.8014 85.4081 21.9436C85.0298 21.0866 84.8408 20.1326 84.8408 19.0819Z" fill="white"/>
<path fill-rule="evenodd" clip-rule="evenodd" d="M100.945 7.9396C100.945 7.4044 101.143 6.9408 101.539 6.54224C101.937 6.14632 102.439 5.94824 103.046 5.94824C103.654 5.94824 104.167 6.1372 104.581 6.51552C104.995 6.89336 105.204 7.368 105.204 7.9396C105.204 8.5112 104.995 8.98576 104.581 9.36392C104.167 9.74192 103.654 9.93096 103.046 9.93096C102.439 9.93096 101.937 9.73288 101.539 9.33456C101.143 8.93864 100.945 8.47528 100.945 7.9396Z" fill="white"/>
<path fill-rule="evenodd" clip-rule="evenodd" d="M114.64 16.1227C114.31 16.1227 114.066 15.8721 114.024 15.763C113.748 15.0402 112.869 14.7686 112.16 14.7686C111.04 14.7686 110.162 15.2874 110.162 16.1794C110.162 17.0422 111.012 17.2182 111.537 17.3773C112.114 17.5519 113.214 17.7916 113.821 17.9344C114.438 18.0794 115.012 18.2923 115.549 18.5712C117.311 19.4857 117.561 20.9244 117.561 21.7909C117.561 24.9873 114.394 26.0478 112.195 26.0478C110.5 26.0478 107.316 25.7912 106.617 22.5596C106.549 22.2452 106.827 21.7618 107.338 21.7618H109.17C109.531 21.7618 109.773 22.0246 109.844 22.2312C110.08 22.8805 110.828 23.371 112.089 23.371C113.443 23.371 114.243 22.8343 114.243 22.1205C114.243 21.6592 113.981 21.2485 113.639 21.017C112.613 20.3211 110.075 20.2423 108.697 19.5092C108.17 19.2285 106.845 18.5871 106.845 16.3998C106.845 13.385 109.586 12.1135 111.994 12.1135C115.545 12.1135 116.848 14.3571 116.995 15.1887C117.076 15.6475 116.819 16.1227 116.303 16.1227H114.64Z" fill="white"/>
<path fill-rule="evenodd" clip-rule="evenodd" d="M117.833 14.4805V13.1081C117.833 12.7805 118.091 12.3868 118.55 12.3868H120.319V9.0171C120.319 8.65638 120.563 8.43694 120.748 8.35622C120.858 8.30838 121.848 7.87678 122.638 7.53198C123.19 7.30526 123.637 7.75974 123.637 8.19814V12.3868H126.565C127.018 12.3868 127.287 12.7818 127.287 13.1081V14.4825C127.287 14.8805 126.931 15.2056 126.566 15.2056H123.637V21.0133C123.637 21.6766 123.619 22.1955 123.872 22.5786C124.105 22.93 124.446 23.0604 125.129 23.0604C125.325 23.0604 125.5 23.0276 125.648 22.9774C126.082 22.829 126.406 23.0823 126.516 23.2952C126.732 23.7129 126.979 24.172 127.152 24.5008C127.343 24.8622 127.189 25.3253 126.841 25.4941C126.28 25.7669 125.502 25.9882 124.435 25.9882C123.551 25.9882 123.05 25.8913 122.49 25.6976C121.928 25.5041 121.394 25.0938 121.073 24.6978C120.749 24.3018 120.589 23.7717 120.469 23.182C120.347 22.5927 120.319 21.8774 120.319 21.1013V15.2056H118.554C118.091 15.2056 117.833 14.8051 117.833 14.4805Z" fill="white"/>
<path fill-rule="evenodd" clip-rule="evenodd" d="M41.928 14.4805V13.1081C41.928 12.7805 42.1865 12.3868 42.6448 12.3868H44.6662V9.0171C44.6662 8.65638 44.9108 8.43694 45.0959 8.35622C45.2057 8.30838 46.1951 7.87678 46.9856 7.53198C47.5378 7.30526 47.9849 7.75974 47.9849 8.19814V12.3868H50.9132C51.3652 12.3868 51.6348 12.7818 51.6348 13.1081V14.4825C51.6348 14.8805 51.2788 15.2056 50.9132 15.2056H47.9849V21.0133C47.9849 21.6766 47.9665 22.1955 48.22 22.5786C48.4523 22.93 48.7933 23.0604 49.4768 23.0604C49.6728 23.0604 49.8479 23.0276 49.9956 22.9774C50.4292 22.829 50.7533 23.0823 50.8633 23.2952C51.0795 23.7129 51.3266 24.172 51.4997 24.5008C51.6901 24.8622 51.537 25.3253 51.1889 25.4941C50.6272 25.7669 49.8499 25.9882 48.783 25.9882C47.8987 25.9882 47.3978 25.8913 46.8379 25.6976C46.2754 25.5041 45.7422 25.0938 45.4203 24.6978C45.0964 24.3018 44.9361 23.7717 44.8167 23.182C44.6949 22.5927 44.6662 21.8774 44.6662 21.1013V15.2056H42.6497C42.1865 15.2056 41.928 14.8051 41.928 14.4805Z" fill="white"/>
<path fill-rule="evenodd" clip-rule="evenodd" d="M102.115 25.7208H103.991C104.388 25.7208 104.712 25.3961 104.712 24.9991V13.1081C104.712 12.7111 104.388 12.3865 103.991 12.3865H102.115C101.719 12.3865 101.394 12.7111 101.394 13.1081V24.9991C101.394 25.3961 101.719 25.7208 102.115 25.7208Z" fill="white"/>
</g>
<defs>
<clipPath id="clip0">
<rect width="127.28" height="32" fill="white"/>
</clipPath>
</defs>
</svg>
